<?xml version="1.0" encoding="UTF-8"?>
<svg width="30px" height="30px" viewBox="0 0 30 30" version="1.1" xmlns="http://www.w3.org/2000/svg" xmlns:xlink="http://www.w3.org/1999/xlink">
    <!-- Generator: Sketch 55.1 (78136) - https://sketchapp.com -->
    <title>Mask</title>
    <desc>Created with Sketch.</desc>
    <defs>
        <path d="M15,29.7692308 C6.84317908,29.7692308 0.230769231,23.1568209 0.230769231,15 C0.230769231,6.84317908 6.84317908,0.230769231 15,0.230769231 C23.1568209,0.230769231 29.7692308,6.84317908 29.7692308,15 C29.7692308,23.1568209 23.1568209,29.7692308 15,29.7692308 Z M13.7692308,12.5384615 L13.7692308,21.1538462 L16.2307692,23.6153846 L16.2307692,12.5384615 L13.7692308,12.5384615 Z M15,10.0769231 C16.0196026,10.0769231 16.8461538,9.25037185 16.8461538,8.23076923 C16.8461538,7.21116662 16.0196026,6.38461538 15,6.38461538 C13.9803974,6.38461538 13.1538462,7.21116662 13.1538462,8.23076923 C13.1538462,9.25037185 13.9803974,10.0769231 15,10.0769231 Z" id="path-1"></path>
    </defs>
    <g id="Page-1" stroke="none" stroke-width="1" fill="none" fill-rule="evenodd">
        <mask id="mask-2" fill="white">
            <use xlink:href="#path-1"></use>
        </mask>
        <use id="Mask" fill="#DA3851" xlink:href="#path-1"></use>
    </g>
</svg>